# xmcd
#
# Track frame offsets:
# 150
# 12085
# 24875
# 36902
# 49179
# 60016
# 71799
# 84963
# 98001
# 111189
# 123868
# 133791
# 146145
# 157783
# 168789
# 182477
# 195029
# 207265
# 214050
# 223659
# 232949
# 245078
# 262034
# 274453
#
# Disc length: 3810 seconds
#
#
# Revision: 0
# Processed by: cddbd v1.5.1PL0 Copyright (c) Steve Scherf et al.
# Submitted via: FreeRIP 2.70 
#
DISCID=460ee018
DTITLE=Hank Williams - 20 Greatest Hits Or Something
DYEAR=1900
DGENRE=Country
TTITLE0=Blah
TTITLE1=Blah,Blah
TTITLE2=Blah,Blah,Blah
TTITLE3=Half As Much
TTITLE4=I Can't Help It(If I'm Still In Love With You)
TTITLE5=Settin' The Woods On Fire
TTITLE6=Hey,Good Lookin'
TTITLE7=Jambalya(On The Bayou)
TTITLE8=?
TTITLE9=grergg
TTITLE10=grgre
TTITLE11=ttrgte
TTITLE12=ewd
TTITLE13=uruy
TTITLE14=yufru
TTITLE15=lilil
TTITLE16=jytyj
TTITLE17=gfrgdf
TTITLE18=Lslal
TTITLE19=sdasd
TTITLE20=dasdas
TTITLE21=asdasd
TTITLE22=asdasdd
TTITLE23=awdw
EXTD=
EXTT0=
EXTT1=
EXTT2=
EXTT3=
EXTT4=
EXTT5=
EXTT6=
EXTT7=
EXTT8=
EXTT9=
EXTT10=
EXTT11=
EXTT12=
EXTT13=
EXTT14=
EXTT15=
EXTT16=
EXTT17=
EXTT18=
EXTT19=
EXTT20=
EXTT21=
EXTT22=
EXTT23=
PLAYORDER=
